
<svg version="1.1" xmlns="http://www.w3.org/2000/svg" xmlns:xlink="http://www.w3.org/1999/xlink" x="0px" y="0px" width="328.8px"
	 height="211.52px" viewBox="0 0 328.8 211.52" enable-background="new 0 0 328.8 211.52" xml:space="preserve">
<g id="chip">
	<g>
		<path fill="#CBBAF7" d="M84,84c0-3.866-3.134-7-7-7H46c-3.866,0-7,3.134-7,7v18c0,3.866,3.134,7,7,7h31c3.866,0,7-3.134,7-7V84z"
			/>
		<path fill="none" stroke="#000000" stroke-linejoin="round" stroke-miterlimit="10" d="M83.5,83.5c0-3.866-3.134-7-7-7h-31
			c-3.866,0-7,3.134-7,7v18c0,3.866,3.134,7,7,7h31c3.866,0,7-3.134,7-7V83.5z"/>
	</g>
	<path fill="none" stroke="#000000" stroke-width="3" stroke-linecap="round" d="M26.484,78c4.931,8.541,4.931,19.063,0,27.604
		 M20.412,81.036c3.846,6.662,3.846,14.87,0,21.531 M14.615,83.824c2.781,4.868,2.781,10.866,0,15.734 M8.818,86.833
		c2.009,3.041,2.009,6.896,0,9.938"/>
</g>
<g id="brand">
	<text transform="matrix(0.762 0 0 1 257 174.1084)"><tspan x="0" y="0" font-family="'Arial-Black'" font-size="20.3442">CARD</tspan><tspan x="0" y="24.413" font-family="'Arial-Black'" font-size="20.3442">BRAND</tspan></text>
</g>
<g id="nombre">
	<text transform="matrix(1 0 0 1 24 185)" font-family="'Arial-BoldMT'" font-size="14" letter-spacing="2">CHRISTIAN M. HAAG</text>
</g>
<g id="caduca">
	<text transform="matrix(1 0 0 1 143 168)" font-family="'ArialMT'" font-size="9">EXPIRES</text>
	<g id="fecha">
		<text id="mes" transform="matrix(1 0 0 1 188.667 166)" font-family="'ArialMT'" font-size="11">10</text>
		<text id="año" transform="matrix(1 0 0 1 211.333 166)" font-family="'ArialMT'" font-size="11">23</text>
		<text transform="matrix(1 0 0 1 205 166)" font-family="'ArialMT'" font-size="11">/</text>
	</g>
</g>
<g id="numero">
	<g id="Capa_4">
		<text transform="matrix(1 0 0 1 29 143)" font-family="'ArialMT'" font-size="25">7028</text>
	</g>
	<g id="Capa_5">
		<text transform="matrix(1 0 0 1 99 143)" font-family="'ArialMT'" font-size="25">5131</text>
	</g>
	<g id="Capa_6">
		<text transform="matrix(1 0 0 1 168 143)" font-family="'ArialMT'" font-size="25">0544</text>
	</g>
	<g id="Capa_7">
		<text transform="matrix(1 0 0 1 242 143)" font-family="'ArialMT'" font-size="25">5402</text>
	</g>
</g>
<g id="entidad_1_">
	<text transform="matrix(1 0 0 1 19.5 28)" font-family="'ArialMT'" font-size="18">Nombre Banco</text>
</g>
</svg>
